# xmcd
#
# Track frame offsets: 
#        150
#        13562
#        27016
#        39115
#        50114
#        62410
#        75367
#        87821
#        99852
#        111774
#        123314
#        136450
#        149031
#        160128
#        172145
#        185138
#        196541
#        207252
#        218408
#        230143
#        241654
#        253516
#        265324
#        275703
#        287954
#        300292
#        311336
#        322817
#        334918
#        345428
#
# Disc length: 4766 seconds
#
# Revision: 1
# Processed by: cddbd v1.5.2PL0 Copyright (c) Steve Scherf et al.
# Submitted via: ExactAudioCopy v1.0b1
#
DISCID=9e129c1e
DTITLE=Sonny Boy Williamson II - Eyesight To The Blind
DYEAR=1998
DGENRE=Blues
TTITLE0=Crazy 'Bout You Baby (mono)
TTITLE1=Eyesight To The Blind (mono)
TTITLE2=Cool Cool Blues (mono)
TTITLE3=Do It If You Wanna (mono)
TTITLE4=Come On Back Home (mono)
TTITLE5=Stop Crying (mono)
TTITLE6=East Memphis Blues (mono)
TTITLE7=I Cross My Heart (mono)
TTITLE8=Pontiac Blues (mono)
TTITLE9=Sonny Boy's Christmas Blues (mono)
TTITLE10=Mighty Long Time (mono)
TTITLE11=Nine Below Zero (mono)
TTITLE12=Mr. Downchild (mono)
TTITLE13=Stop Now Baby (mono)
TTITLE14=Cat Hop (mono)
TTITLE15=Too Close Together (mono)
TTITLE16=Gettin' Out Of Town (mono)
TTITLE17=She Brought Life Back To The Dead (mono)
TTITLE18=Going In Your Direction (mono)
TTITLE19=Red Hot Kissess (mono)
TTITLE20=Empty Bedroom (mono)
TTITLE21=From The Bottom (mono)
TTITLE22=Sonny's Rhythm (mono)
TTITLE23=I'm Not Beggin' Nobody (mono)
TTITLE24=She's Crazy (mono)
TTITLE25=City Of New Orleans (mono)
TTITLE26=Keep It To Yourself (mono)
TTITLE27=309 (mono)
TTITLE28=Shuckin' Mama (mono)
TTITLE29=Clownin' With The World (mono)
EXTD=
EXTT0=
EXTT1=
EXTT2=
EXTT3=
EXTT4=
EXTT5=
EXTT6=
EXTT7=
EXTT8=
EXTT9=
EXTT10=
EXTT11=
EXTT12=
EXTT13=
EXTT14=
EXTT15=
EXTT16=
EXTT17=
EXTT18=
EXTT19=
EXTT20=
EXTT21=
EXTT22=
EXTT23=
EXTT24=
EXTT25=
EXTT26=
EXTT27=
EXTT28=
EXTT29=
PLAYORDER=
